<?xml version="1.0" encoding="UTF-8" standalone="no"?>
<!DOCTYPE svg PUBLIC "-//W3C//DTD SVG 1.1//EN"
 "http://www.w3.org/Graphics/SVG/1.1/DTD/svg11.dtd">
<!-- Generated by graphviz version 14.1.4 (20260321.0153)
 -->
<!-- Title: Drones Pages: 1 -->
<svg width="545pt" height="101pt"
 viewBox="0.00 0.00 545.00 101.00" xmlns="http://www.w3.org/2000/svg" xmlns:xlink="http://www.w3.org/1999/xlink">
<g id="graph0" class="graph" transform="scale(1 1) rotate(0) translate(4 97)">
<title>Drones</title>
<polygon fill="lightblue" stroke="none" points="-4,4 -4,-97 540.75,-97 540.75,4 -4,4"/>
<g id="clust1" class="cluster">
<title>cluster_0</title>
<polygon fill="lightgrey" stroke="lightgrey" points="0,-8 0,-85 94.75,-85 94.75,-8 0,-8"/>
<text xml:space="preserve" text-anchor="middle" x="47.38" y="-67.7" font-family="Times New Roman,serif" font-size="14.00">SistemaDificil</text>
</g>
<!-- Dron01 -->
<g id="node1" class="node">
<title>Dron01</title>
<polygon fill="white" stroke="darkblue" points="73.88,-52 19.88,-52 19.88,-16 73.88,-16 73.88,-52"/>
<text xml:space="preserve" text-anchor="middle" x="46.88" y="-30.3" font-family="Times New Roman,serif" font-size="11.00">Dron01</text>
</g>
<!-- Dron02 -->
<g id="node2" class="node">
<title>Dron02</title>
<path fill="none" stroke="black" d="M164.75,-52C164.75,-52 134.75,-52 134.75,-52 128.75,-52 122.75,-46 122.75,-40 122.75,-40 122.75,-28 122.75,-28 122.75,-22 128.75,-16 134.75,-16 134.75,-16 164.75,-16 164.75,-16 170.75,-16 176.75,-22 176.75,-28 176.75,-28 176.75,-40 176.75,-40 176.75,-46 170.75,-52 164.75,-52"/>
<text xml:space="preserve" text-anchor="middle" x="149.75" y="-30.3" font-family="Times New Roman,serif" font-size="11.00">Dron02</text>
</g>
<!-- Dron01&#45;&gt;Dron02 -->
<g id="edge1" class="edge">
<title>Dron01&#45;&gt;Dron02</title>
<path fill="none" stroke="gray" stroke-dasharray="5,2" d="M74.12,-34C85.35,-34 98.69,-34 110.96,-34"/>
<polygon fill="gray" stroke="gray" points="110.78,-37.5 120.78,-34 110.78,-30.5 110.78,-37.5"/>
</g>
<!-- Dron03 -->
<g id="node3" class="node">
<title>Dron03</title>
<path fill="none" stroke="black" d="M254.75,-52C254.75,-52 224.75,-52 224.75,-52 218.75,-52 212.75,-46 212.75,-40 212.75,-40 212.75,-28 212.75,-28 212.75,-22 218.75,-16 224.75,-16 224.75,-16 254.75,-16 254.75,-16 260.75,-16 266.75,-22 266.75,-28 266.75,-28 266.75,-40 266.75,-40 266.75,-46 260.75,-52 254.75,-52"/>
<text xml:space="preserve" text-anchor="middle" x="239.75" y="-30.3" font-family="Times New Roman,serif" font-size="11.00">Dron03</text>
</g>
<!-- Dron02&#45;&gt;Dron03 -->
<g id="edge2" class="edge">
<title>Dron02&#45;&gt;Dron03</title>
<path fill="none" stroke="gray" stroke-dasharray="5,2" d="M177.15,-34C184.64,-34 192.93,-34 200.95,-34"/>
<polygon fill="gray" stroke="gray" points="200.85,-37.5 210.85,-34 200.85,-30.5 200.85,-37.5"/>
</g>
<!-- Dron04 -->
<g id="node4" class="node">
<title>Dron04</title>
<path fill="none" stroke="black" d="M344.75,-52C344.75,-52 314.75,-52 314.75,-52 308.75,-52 302.75,-46 302.75,-40 302.75,-40 302.75,-28 302.75,-28 302.75,-22 308.75,-16 314.75,-16 314.75,-16 344.75,-16 344.75,-16 350.75,-16 356.75,-22 356.75,-28 356.75,-28 356.75,-40 356.75,-40 356.75,-46 350.75,-52 344.75,-52"/>
<text xml:space="preserve" text-anchor="middle" x="329.75" y="-30.3" font-family="Times New Roman,serif" font-size="11.00">Dron04</text>
</g>
<!-- Dron03&#45;&gt;Dron04 -->
<g id="edge3" class="edge">
<title>Dron03&#45;&gt;Dron04</title>
<path fill="none" stroke="gray" stroke-dasharray="5,2" d="M267.15,-34C274.64,-34 282.93,-34 290.95,-34"/>
<polygon fill="gray" stroke="gray" points="290.85,-37.5 300.85,-34 290.85,-30.5 290.85,-37.5"/>
</g>
<!-- Dron05 -->
<g id="node5" class="node">
<title>Dron05</title>
<path fill="none" stroke="black" d="M434.75,-52C434.75,-52 404.75,-52 404.75,-52 398.75,-52 392.75,-46 392.75,-40 392.75,-40 392.75,-28 392.75,-28 392.75,-22 398.75,-16 404.75,-16 404.75,-16 434.75,-16 434.75,-16 440.75,-16 446.75,-22 446.75,-28 446.75,-28 446.75,-40 446.75,-40 446.75,-46 440.75,-52 434.75,-52"/>
<text xml:space="preserve" text-anchor="middle" x="419.75" y="-30.3" font-family="Times New Roman,serif" font-size="11.00">Dron05</text>
</g>
<!-- Dron04&#45;&gt;Dron05 -->
<g id="edge4" class="edge">
<title>Dron04&#45;&gt;Dron05</title>
<path fill="none" stroke="gray" stroke-dasharray="5,2" d="M357.15,-34C364.64,-34 372.93,-34 380.95,-34"/>
<polygon fill="gray" stroke="gray" points="380.85,-37.5 390.85,-34 380.85,-30.5 380.85,-37.5"/>
</g>
<!-- Dron06 -->
<g id="node6" class="node">
<title>Dron06</title>
<path fill="none" stroke="black" d="M524.75,-52C524.75,-52 494.75,-52 494.75,-52 488.75,-52 482.75,-46 482.75,-40 482.75,-40 482.75,-28 482.75,-28 482.75,-22 488.75,-16 494.75,-16 494.75,-16 524.75,-16 524.75,-16 530.75,-16 536.75,-22 536.75,-28 536.75,-28 536.75,-40 536.75,-40 536.75,-46 530.75,-52 524.75,-52"/>
<text xml:space="preserve" text-anchor="middle" x="509.75" y="-30.3" font-family="Times New Roman,serif" font-size="11.00">Dron06</text>
</g>
<!-- Dron05&#45;&gt;Dron06 -->
<g id="edge5" class="edge">
<title>Dron05&#45;&gt;Dron06</title>
<path fill="none" stroke="gray" stroke-dasharray="5,2" d="M447.15,-34C454.64,-34 462.93,-34 470.95,-34"/>
<polygon fill="gray" stroke="gray" points="470.85,-37.5 480.85,-34 470.85,-30.5 470.85,-37.5"/>
</g>
</g>
</svg>
