<?xml version="1.0" encoding="UTF-8" standalone="no"?>
<!DOCTYPE svg PUBLIC "-//W3C//DTD SVG 1.1//EN"
 "http://www.w3.org/Graphics/SVG/1.1/DTD/svg11.dtd">
<!-- Generated by graphviz version 14.1.4 (20260321.0153)
 -->
<!-- Title: Drones Pages: 1 -->
<svg width="544pt" height="101pt"
 viewBox="0.00 0.00 544.00 101.00" xmlns="http://www.w3.org/2000/svg" xmlns:xlink="http://www.w3.org/1999/xlink">
<g id="graph0" class="graph" transform="scale(1 1) rotate(0) translate(4 97)">
<title>Drones</title>
<polygon fill="lightblue" stroke="none" points="-4,4 -4,-97 540,-97 540,4 -4,4"/>
<g id="clust1" class="cluster">
<title>cluster_0</title>
<polygon fill="lightgrey" stroke="lightgrey" points="8,-8 8,-85 528,-85 528,-8 8,-8"/>
<text xml:space="preserve" text-anchor="middle" x="268" y="-67.7" font-family="Times New Roman,serif" font-size="14.00">SistemaDificil</text>
</g>
<!-- Dron01 -->
<g id="node1" class="node">
<title>Dron01</title>
<polygon fill="white" stroke="darkblue" points="70,-52 16,-52 16,-16 70,-16 70,-52"/>
<text xml:space="preserve" text-anchor="middle" x="43" y="-30.3" font-family="Times New Roman,serif" font-size="11.00">Dron01</text>
</g>
<!-- Dron02 -->
<g id="node2" class="node">
<title>Dron02</title>
<polygon fill="white" stroke="darkblue" points="160,-52 106,-52 106,-16 160,-16 160,-52"/>
<text xml:space="preserve" text-anchor="middle" x="133" y="-30.3" font-family="Times New Roman,serif" font-size="11.00">Dron02</text>
</g>
<!-- Dron01&#45;&gt;Dron02 -->
<g id="edge1" class="edge">
<title>Dron01&#45;&gt;Dron02</title>
<path fill="none" stroke="gray" stroke-dasharray="5,2" d="M70.4,-34C77.89,-34 86.18,-34 94.2,-34"/>
<polygon fill="gray" stroke="gray" points="94.1,-37.5 104.1,-34 94.1,-30.5 94.1,-37.5"/>
</g>
<!-- Dron03 -->
<g id="node3" class="node">
<title>Dron03</title>
<polygon fill="white" stroke="darkblue" points="250,-52 196,-52 196,-16 250,-16 250,-52"/>
<text xml:space="preserve" text-anchor="middle" x="223" y="-30.3" font-family="Times New Roman,serif" font-size="11.00">Dron03</text>
</g>
<!-- Dron02&#45;&gt;Dron03 -->
<g id="edge2" class="edge">
<title>Dron02&#45;&gt;Dron03</title>
<path fill="none" stroke="gray" stroke-dasharray="5,2" d="M160.4,-34C167.89,-34 176.18,-34 184.2,-34"/>
<polygon fill="gray" stroke="gray" points="184.1,-37.5 194.1,-34 184.1,-30.5 184.1,-37.5"/>
</g>
<!-- Dron04 -->
<g id="node4" class="node">
<title>Dron04</title>
<polygon fill="white" stroke="darkblue" points="340,-52 286,-52 286,-16 340,-16 340,-52"/>
<text xml:space="preserve" text-anchor="middle" x="313" y="-30.3" font-family="Times New Roman,serif" font-size="11.00">Dron04</text>
</g>
<!-- Dron03&#45;&gt;Dron04 -->
<g id="edge3" class="edge">
<title>Dron03&#45;&gt;Dron04</title>
<path fill="none" stroke="gray" stroke-dasharray="5,2" d="M250.4,-34C257.89,-34 266.18,-34 274.2,-34"/>
<polygon fill="gray" stroke="gray" points="274.1,-37.5 284.1,-34 274.1,-30.5 274.1,-37.5"/>
</g>
<!-- Dron05 -->
<g id="node5" class="node">
<title>Dron05</title>
<polygon fill="white" stroke="darkblue" points="430,-52 376,-52 376,-16 430,-16 430,-52"/>
<text xml:space="preserve" text-anchor="middle" x="403" y="-30.3" font-family="Times New Roman,serif" font-size="11.00">Dron05</text>
</g>
<!-- Dron04&#45;&gt;Dron05 -->
<g id="edge4" class="edge">
<title>Dron04&#45;&gt;Dron05</title>
<path fill="none" stroke="gray" stroke-dasharray="5,2" d="M340.4,-34C347.89,-34 356.18,-34 364.2,-34"/>
<polygon fill="gray" stroke="gray" points="364.1,-37.5 374.1,-34 364.1,-30.5 364.1,-37.5"/>
</g>
<!-- Dron06 -->
<g id="node6" class="node">
<title>Dron06</title>
<polygon fill="white" stroke="darkblue" points="520,-52 466,-52 466,-16 520,-16 520,-52"/>
<text xml:space="preserve" text-anchor="middle" x="493" y="-30.3" font-family="Times New Roman,serif" font-size="11.00">Dron06</text>
</g>
<!-- Dron05&#45;&gt;Dron06 -->
<g id="edge5" class="edge">
<title>Dron05&#45;&gt;Dron06</title>
<path fill="none" stroke="gray" stroke-dasharray="5,2" d="M430.4,-34C437.89,-34 446.18,-34 454.2,-34"/>
<polygon fill="gray" stroke="gray" points="454.1,-37.5 464.1,-34 454.1,-30.5 454.1,-37.5"/>
</g>
</g>
</svg>
