<?xml version="1.0" encoding="UTF-8" standalone="no"?>
<!DOCTYPE svg PUBLIC "-//W3C//DTD SVG 1.1//EN"
 "http://www.w3.org/Graphics/SVG/1.1/DTD/svg11.dtd">
<!-- Generated by graphviz version 14.1.2 (20260124.0452)
 -->
<!-- Title: Instrucciones Pages: 1 -->
<svg width="528pt" height="44pt"
 viewBox="0.00 0.00 528.00 44.00" xmlns="http://www.w3.org/2000/svg" xmlns:xlink="http://www.w3.org/1999/xlink">
<g id="graph0" class="graph" transform="scale(1 1) rotate(0) translate(4 40)">
<title>Instrucciones</title>
<polygon fill="white" stroke="none" points="-4,4 -4,-40 524.25,-40 524.25,4 -4,4"/>
<!-- D200_7 -->
<g id="node1" class="node">
<title>D200_7</title>
<path fill="none" stroke="darkblue" d="M63.25,-36C63.25,-36 12,-36 12,-36 6,-36 0,-30 0,-24 0,-24 0,-12 0,-12 0,-6 6,0 12,0 12,0 63.25,0 63.25,0 69.25,0 75.25,-6 75.25,-12 75.25,-12 75.25,-24 75.25,-24 75.25,-30 69.25,-36 63.25,-36"/>
<text xml:space="preserve" text-anchor="middle" x="37.62" y="-13.72" font-family="Times New Roman,serif" font-size="12.00">D200 @ 7m</text>
</g>
<!-- D199_6 -->
<g id="node2" class="node">
<title>D199_6</title>
<path fill="none" stroke="darkblue" d="M174.5,-36C174.5,-36 123.25,-36 123.25,-36 117.25,-36 111.25,-30 111.25,-24 111.25,-24 111.25,-12 111.25,-12 111.25,-6 117.25,0 123.25,0 123.25,0 174.5,0 174.5,0 180.5,0 186.5,-6 186.5,-12 186.5,-12 186.5,-24 186.5,-24 186.5,-30 180.5,-36 174.5,-36"/>
<text xml:space="preserve" text-anchor="middle" x="148.88" y="-13.72" font-family="Times New Roman,serif" font-size="12.00">D199 @ 6m</text>
</g>
<!-- D200_7&#45;&gt;D199_6 -->
<g id="edge1" class="edge">
<title>D200_7&#45;&gt;D199_6</title>
<path fill="none" stroke="black" d="M75.61,-18C83.26,-18 91.43,-18 99.43,-18"/>
<polygon fill="black" stroke="black" points="99.41,-21.5 109.41,-18 99.41,-14.5 99.41,-21.5"/>
</g>
<!-- D198_5 -->
<g id="node3" class="node">
<title>D198_5</title>
<path fill="none" stroke="darkblue" d="M285.75,-36C285.75,-36 234.5,-36 234.5,-36 228.5,-36 222.5,-30 222.5,-24 222.5,-24 222.5,-12 222.5,-12 222.5,-6 228.5,0 234.5,0 234.5,0 285.75,0 285.75,0 291.75,0 297.75,-6 297.75,-12 297.75,-12 297.75,-24 297.75,-24 297.75,-30 291.75,-36 285.75,-36"/>
<text xml:space="preserve" text-anchor="middle" x="260.12" y="-13.72" font-family="Times New Roman,serif" font-size="12.00">D198 @ 5m</text>
</g>
<!-- D199_6&#45;&gt;D198_5 -->
<g id="edge2" class="edge">
<title>D199_6&#45;&gt;D198_5</title>
<path fill="none" stroke="black" d="M186.86,-18C194.51,-18 202.68,-18 210.68,-18"/>
<polygon fill="black" stroke="black" points="210.66,-21.5 220.66,-18 210.66,-14.5 210.66,-21.5"/>
</g>
<!-- D197_4 -->
<g id="node4" class="node">
<title>D197_4</title>
<path fill="none" stroke="darkblue" d="M397,-36C397,-36 345.75,-36 345.75,-36 339.75,-36 333.75,-30 333.75,-24 333.75,-24 333.75,-12 333.75,-12 333.75,-6 339.75,0 345.75,0 345.75,0 397,0 397,0 403,0 409,-6 409,-12 409,-12 409,-24 409,-24 409,-30 403,-36 397,-36"/>
<text xml:space="preserve" text-anchor="middle" x="371.38" y="-13.72" font-family="Times New Roman,serif" font-size="12.00">D197 @ 4m</text>
</g>
<!-- D198_5&#45;&gt;D197_4 -->
<g id="edge3" class="edge">
<title>D198_5&#45;&gt;D197_4</title>
<path fill="none" stroke="black" d="M298.11,-18C305.76,-18 313.93,-18 321.93,-18"/>
<polygon fill="black" stroke="black" points="321.91,-21.5 331.91,-18 321.91,-14.5 321.91,-21.5"/>
</g>
<!-- D196_3 -->
<g id="node5" class="node">
<title>D196_3</title>
<path fill="none" stroke="darkblue" d="M508.25,-36C508.25,-36 457,-36 457,-36 451,-36 445,-30 445,-24 445,-24 445,-12 445,-12 445,-6 451,0 457,0 457,0 508.25,0 508.25,0 514.25,0 520.25,-6 520.25,-12 520.25,-12 520.25,-24 520.25,-24 520.25,-30 514.25,-36 508.25,-36"/>
<text xml:space="preserve" text-anchor="middle" x="482.62" y="-13.72" font-family="Times New Roman,serif" font-size="12.00">D196 @ 3m</text>
</g>
<!-- D197_4&#45;&gt;D196_3 -->
<g id="edge4" class="edge">
<title>D197_4&#45;&gt;D196_3</title>
<path fill="none" stroke="black" d="M409.36,-18C417.01,-18 425.18,-18 433.18,-18"/>
<polygon fill="black" stroke="black" points="433.16,-21.5 443.16,-18 433.16,-14.5 433.16,-21.5"/>
</g>
</g>
</svg>
