<?xml version="1.0" encoding="UTF-8" standalone="no"?>
<!DOCTYPE svg PUBLIC "-//W3C//DTD SVG 1.1//EN"
 "http://www.w3.org/Graphics/SVG/1.1/DTD/svg11.dtd">
<!-- Generated by graphviz version 14.1.2 (20260124.0452)
 -->
<!-- Title: Instrucciones Pages: 1 -->
<svg width="1353pt" height="44pt"
 viewBox="0.00 0.00 1353.00 44.00" xmlns="http://www.w3.org/2000/svg" xmlns:xlink="http://www.w3.org/1999/xlink">
<g id="graph0" class="graph" transform="scale(1 1) rotate(0) translate(4 40)">
<title>Instrucciones</title>
<polygon fill="white" stroke="none" points="-4,4 -4,-40 1349,-40 1349,4 -4,4"/>
<!-- DRON001_1 -->
<g id="node1" class="node">
<title>DRON001_1</title>
<path fill="none" stroke="darkblue" d="M89.5,-36C89.5,-36 12,-36 12,-36 6,-36 0,-30 0,-24 0,-24 0,-12 0,-12 0,-6 6,0 12,0 12,0 89.5,0 89.5,0 95.5,0 101.5,-6 101.5,-12 101.5,-12 101.5,-24 101.5,-24 101.5,-30 95.5,-36 89.5,-36"/>
<text xml:space="preserve" text-anchor="middle" x="50.75" y="-13.72" font-family="Times New Roman,serif" font-size="12.00">DRON001 @ 1m</text>
</g>
<!-- DRON002_2 -->
<g id="node2" class="node">
<title>DRON002_2</title>
<path fill="none" stroke="darkblue" d="M227,-36C227,-36 149.5,-36 149.5,-36 143.5,-36 137.5,-30 137.5,-24 137.5,-24 137.5,-12 137.5,-12 137.5,-6 143.5,0 149.5,0 149.5,0 227,0 227,0 233,0 239,-6 239,-12 239,-12 239,-24 239,-24 239,-30 233,-36 227,-36"/>
<text xml:space="preserve" text-anchor="middle" x="188.25" y="-13.72" font-family="Times New Roman,serif" font-size="12.00">DRON002 @ 2m</text>
</g>
<!-- DRON001_1&#45;&gt;DRON002_2 -->
<g id="edge1" class="edge">
<title>DRON001_1&#45;&gt;DRON002_2</title>
<path fill="none" stroke="black" d="M101.82,-18C109.71,-18 117.95,-18 126.06,-18"/>
<polygon fill="black" stroke="black" points="125.87,-21.5 135.87,-18 125.87,-14.5 125.87,-21.5"/>
</g>
<!-- DRON003_3 -->
<g id="node3" class="node">
<title>DRON003_3</title>
<path fill="none" stroke="darkblue" d="M364.5,-36C364.5,-36 287,-36 287,-36 281,-36 275,-30 275,-24 275,-24 275,-12 275,-12 275,-6 281,0 287,0 287,0 364.5,0 364.5,0 370.5,0 376.5,-6 376.5,-12 376.5,-12 376.5,-24 376.5,-24 376.5,-30 370.5,-36 364.5,-36"/>
<text xml:space="preserve" text-anchor="middle" x="325.75" y="-13.72" font-family="Times New Roman,serif" font-size="12.00">DRON003 @ 3m</text>
</g>
<!-- DRON002_2&#45;&gt;DRON003_3 -->
<g id="edge2" class="edge">
<title>DRON002_2&#45;&gt;DRON003_3</title>
<path fill="none" stroke="black" d="M239.32,-18C247.21,-18 255.45,-18 263.56,-18"/>
<polygon fill="black" stroke="black" points="263.37,-21.5 273.37,-18 263.37,-14.5 263.37,-21.5"/>
</g>
<!-- DRON004_4 -->
<g id="node4" class="node">
<title>DRON004_4</title>
<path fill="none" stroke="darkblue" d="M502,-36C502,-36 424.5,-36 424.5,-36 418.5,-36 412.5,-30 412.5,-24 412.5,-24 412.5,-12 412.5,-12 412.5,-6 418.5,0 424.5,0 424.5,0 502,0 502,0 508,0 514,-6 514,-12 514,-12 514,-24 514,-24 514,-30 508,-36 502,-36"/>
<text xml:space="preserve" text-anchor="middle" x="463.25" y="-13.72" font-family="Times New Roman,serif" font-size="12.00">DRON004 @ 4m</text>
</g>
<!-- DRON003_3&#45;&gt;DRON004_4 -->
<g id="edge3" class="edge">
<title>DRON003_3&#45;&gt;DRON004_4</title>
<path fill="none" stroke="black" d="M376.82,-18C384.71,-18 392.95,-18 401.06,-18"/>
<polygon fill="black" stroke="black" points="400.87,-21.5 410.87,-18 400.87,-14.5 400.87,-21.5"/>
</g>
<!-- DRON005_5 -->
<g id="node5" class="node">
<title>DRON005_5</title>
<path fill="none" stroke="darkblue" d="M639.5,-36C639.5,-36 562,-36 562,-36 556,-36 550,-30 550,-24 550,-24 550,-12 550,-12 550,-6 556,0 562,0 562,0 639.5,0 639.5,0 645.5,0 651.5,-6 651.5,-12 651.5,-12 651.5,-24 651.5,-24 651.5,-30 645.5,-36 639.5,-36"/>
<text xml:space="preserve" text-anchor="middle" x="600.75" y="-13.72" font-family="Times New Roman,serif" font-size="12.00">DRON005 @ 5m</text>
</g>
<!-- DRON004_4&#45;&gt;DRON005_5 -->
<g id="edge4" class="edge">
<title>DRON004_4&#45;&gt;DRON005_5</title>
<path fill="none" stroke="black" d="M514.32,-18C522.21,-18 530.45,-18 538.56,-18"/>
<polygon fill="black" stroke="black" points="538.37,-21.5 548.37,-18 538.37,-14.5 538.37,-21.5"/>
</g>
<!-- DRON006_6 -->
<g id="node6" class="node">
<title>DRON006_6</title>
<path fill="none" stroke="darkblue" d="M777,-36C777,-36 699.5,-36 699.5,-36 693.5,-36 687.5,-30 687.5,-24 687.5,-24 687.5,-12 687.5,-12 687.5,-6 693.5,0 699.5,0 699.5,0 777,0 777,0 783,0 789,-6 789,-12 789,-12 789,-24 789,-24 789,-30 783,-36 777,-36"/>
<text xml:space="preserve" text-anchor="middle" x="738.25" y="-13.72" font-family="Times New Roman,serif" font-size="12.00">DRON006 @ 6m</text>
</g>
<!-- DRON005_5&#45;&gt;DRON006_6 -->
<g id="edge5" class="edge">
<title>DRON005_5&#45;&gt;DRON006_6</title>
<path fill="none" stroke="black" d="M651.82,-18C659.71,-18 667.95,-18 676.06,-18"/>
<polygon fill="black" stroke="black" points="675.87,-21.5 685.87,-18 675.87,-14.5 675.87,-21.5"/>
</g>
<!-- DRON007_7 -->
<g id="node7" class="node">
<title>DRON007_7</title>
<path fill="none" stroke="darkblue" d="M914.5,-36C914.5,-36 837,-36 837,-36 831,-36 825,-30 825,-24 825,-24 825,-12 825,-12 825,-6 831,0 837,0 837,0 914.5,0 914.5,0 920.5,0 926.5,-6 926.5,-12 926.5,-12 926.5,-24 926.5,-24 926.5,-30 920.5,-36 914.5,-36"/>
<text xml:space="preserve" text-anchor="middle" x="875.75" y="-13.72" font-family="Times New Roman,serif" font-size="12.00">DRON007 @ 7m</text>
</g>
<!-- DRON006_6&#45;&gt;DRON007_7 -->
<g id="edge6" class="edge">
<title>DRON006_6&#45;&gt;DRON007_7</title>
<path fill="none" stroke="black" d="M789.32,-18C797.21,-18 805.45,-18 813.56,-18"/>
<polygon fill="black" stroke="black" points="813.37,-21.5 823.37,-18 813.37,-14.5 813.37,-21.5"/>
</g>
<!-- DRON008_8 -->
<g id="node8" class="node">
<title>DRON008_8</title>
<path fill="none" stroke="darkblue" d="M1052,-36C1052,-36 974.5,-36 974.5,-36 968.5,-36 962.5,-30 962.5,-24 962.5,-24 962.5,-12 962.5,-12 962.5,-6 968.5,0 974.5,0 974.5,0 1052,0 1052,0 1058,0 1064,-6 1064,-12 1064,-12 1064,-24 1064,-24 1064,-30 1058,-36 1052,-36"/>
<text xml:space="preserve" text-anchor="middle" x="1013.25" y="-13.72" font-family="Times New Roman,serif" font-size="12.00">DRON008 @ 8m</text>
</g>
<!-- DRON007_7&#45;&gt;DRON008_8 -->
<g id="edge7" class="edge">
<title>DRON007_7&#45;&gt;DRON008_8</title>
<path fill="none" stroke="black" d="M926.82,-18C934.71,-18 942.95,-18 951.06,-18"/>
<polygon fill="black" stroke="black" points="950.87,-21.5 960.87,-18 950.87,-14.5 950.87,-21.5"/>
</g>
<!-- DRON009_9 -->
<g id="node9" class="node">
<title>DRON009_9</title>
<path fill="none" stroke="darkblue" d="M1189.5,-36C1189.5,-36 1112,-36 1112,-36 1106,-36 1100,-30 1100,-24 1100,-24 1100,-12 1100,-12 1100,-6 1106,0 1112,0 1112,0 1189.5,0 1189.5,0 1195.5,0 1201.5,-6 1201.5,-12 1201.5,-12 1201.5,-24 1201.5,-24 1201.5,-30 1195.5,-36 1189.5,-36"/>
<text xml:space="preserve" text-anchor="middle" x="1150.75" y="-13.72" font-family="Times New Roman,serif" font-size="12.00">DRON009 @ 9m</text>
</g>
<!-- DRON008_8&#45;&gt;DRON009_9 -->
<g id="edge8" class="edge">
<title>DRON008_8&#45;&gt;DRON009_9</title>
<path fill="none" stroke="black" d="M1064.32,-18C1072.21,-18 1080.45,-18 1088.56,-18"/>
<polygon fill="black" stroke="black" points="1088.37,-21.5 1098.37,-18 1088.37,-14.5 1088.37,-21.5"/>
</g>
<!-- DRON010_10 -->
<g id="node10" class="node">
<title>DRON010_10</title>
<path fill="none" stroke="darkblue" d="M1333,-36C1333,-36 1249.5,-36 1249.5,-36 1243.5,-36 1237.5,-30 1237.5,-24 1237.5,-24 1237.5,-12 1237.5,-12 1237.5,-6 1243.5,0 1249.5,0 1249.5,0 1333,0 1333,0 1339,0 1345,-6 1345,-12 1345,-12 1345,-24 1345,-24 1345,-30 1339,-36 1333,-36"/>
<text xml:space="preserve" text-anchor="middle" x="1291.25" y="-13.72" font-family="Times New Roman,serif" font-size="12.00">DRON010 @ 10m</text>
</g>
<!-- DRON009_9&#45;&gt;DRON010_10 -->
<g id="edge9" class="edge">
<title>DRON009_9&#45;&gt;DRON010_10</title>
<path fill="none" stroke="black" d="M1201.75,-18C1209.55,-18 1217.69,-18 1225.76,-18"/>
<polygon fill="black" stroke="black" points="1225.54,-21.5 1235.54,-18 1225.54,-14.5 1225.54,-21.5"/>
</g>
</g>
</svg>
