<?xml version="1.0" encoding="UTF-8" standalone="no"?>
<!DOCTYPE svg PUBLIC "-//W3C//DTD SVG 1.1//EN"
 "http://www.w3.org/Graphics/SVG/1.1/DTD/svg11.dtd">
<!-- Generated by graphviz version 14.1.4 (20260321.0153)
 -->
<!-- Title: Instrucciones Pages: 1 -->
<svg width="698pt" height="127pt"
 viewBox="0.00 0.00 698.00 127.00" xmlns="http://www.w3.org/2000/svg" xmlns:xlink="http://www.w3.org/1999/xlink">
<g id="graph0" class="graph" transform="scale(1 1) rotate(0) translate(4 123.25)">
<title>Instrucciones</title>
<polygon fill="white" stroke="none" points="-4,4 -4,-123.25 694,-123.25 694,4 -4,4"/>
<!-- Dron01_8 -->
<g id="node1" class="node">
<title>Dron01_8</title>
<path fill="none" stroke="darkblue" d="M73,-64.25C73,-64.25 12,-64.25 12,-64.25 6,-64.25 0,-58.25 0,-52.25 0,-52.25 0,-39.75 0,-39.75 0,-33.75 6,-27.75 12,-27.75 12,-27.75 73,-27.75 73,-27.75 79,-27.75 85,-33.75 85,-39.75 85,-39.75 85,-52.25 85,-52.25 85,-58.25 79,-64.25 73,-64.25"/>
<text xml:space="preserve" text-anchor="middle" x="42.5" y="-48.85" font-family="Times New Roman,serif" font-size="12.00">Dron01 @ 8m</text>
<text xml:space="preserve" text-anchor="middle" x="42.5" y="-34.6" font-family="Times New Roman,serif" font-size="12.00">(T)</text>
</g>
<!-- Dron01_5 -->
<g id="node2" class="node">
<title>Dron01_5</title>
<path fill="none" stroke="darkblue" d="M194,-119.25C194,-119.25 133,-119.25 133,-119.25 127,-119.25 121,-113.25 121,-107.25 121,-107.25 121,-94.75 121,-94.75 121,-88.75 127,-82.75 133,-82.75 133,-82.75 194,-82.75 194,-82.75 200,-82.75 206,-88.75 206,-94.75 206,-94.75 206,-107.25 206,-107.25 206,-113.25 200,-119.25 194,-119.25"/>
<text xml:space="preserve" text-anchor="middle" x="163.5" y="-103.85" font-family="Times New Roman,serif" font-size="12.00">Dron01 @ 5m</text>
<text xml:space="preserve" text-anchor="middle" x="163.5" y="-89.6" font-family="Times New Roman,serif" font-size="12.00">(O)</text>
</g>
<!-- Dron01_8&#45;&gt;Dron01_5 -->
<g id="edge1" class="edge">
<title>Dron01_8&#45;&gt;Dron01_5</title>
<path fill="none" stroke="black" d="M83.79,-64.62C92.8,-68.79 102.48,-73.26 111.85,-77.59"/>
<polygon fill="black" stroke="black" points="110.33,-80.75 120.88,-81.76 113.27,-74.39 110.33,-80.75"/>
</g>
<!-- Dron05_6 -->
<g id="node7" class="node">
<title>Dron05_6</title>
<path fill="none" stroke="darkblue" d="M194,-64.25C194,-64.25 133,-64.25 133,-64.25 127,-64.25 121,-58.25 121,-52.25 121,-52.25 121,-39.75 121,-39.75 121,-33.75 127,-27.75 133,-27.75 133,-27.75 194,-27.75 194,-27.75 200,-27.75 206,-33.75 206,-39.75 206,-39.75 206,-52.25 206,-52.25 206,-58.25 200,-64.25 194,-64.25"/>
<text xml:space="preserve" text-anchor="middle" x="163.5" y="-48.85" font-family="Times New Roman,serif" font-size="12.00">Dron05 @ 6m</text>
<text xml:space="preserve" text-anchor="middle" x="163.5" y="-34.6" font-family="Times New Roman,serif" font-size="12.00">(A)</text>
</g>
<!-- Dron01_8&#45;&gt;Dron05_6 -->
<g id="edge7" class="edge">
<title>Dron01_8&#45;&gt;Dron05_6</title>
<path fill="none" stroke="black" d="M85.45,-46C93.1,-46 101.17,-46 109.09,-46"/>
<polygon fill="black" stroke="black" points="109.01,-49.5 119.01,-46 109.01,-42.5 109.01,-49.5"/>
</g>
<!-- Dron01_6 -->
<g id="node3" class="node">
<title>Dron01_6</title>
<path fill="none" stroke="darkblue" d="M315,-112.25C315,-112.25 254,-112.25 254,-112.25 248,-112.25 242,-106.25 242,-100.25 242,-100.25 242,-87.75 242,-87.75 242,-81.75 248,-75.75 254,-75.75 254,-75.75 315,-75.75 315,-75.75 321,-75.75 327,-81.75 327,-87.75 327,-87.75 327,-100.25 327,-100.25 327,-106.25 321,-112.25 315,-112.25"/>
<text xml:space="preserve" text-anchor="middle" x="284.5" y="-96.85" font-family="Times New Roman,serif" font-size="12.00">Dron01 @ 6m</text>
<text xml:space="preserve" text-anchor="middle" x="284.5" y="-82.6" font-family="Times New Roman,serif" font-size="12.00">(R)</text>
</g>
<!-- Dron01_5&#45;&gt;Dron01_6 -->
<g id="edge2" class="edge">
<title>Dron01_5&#45;&gt;Dron01_6</title>
<path fill="none" stroke="black" d="M206.45,-98.53C214.1,-98.08 222.17,-97.61 230.09,-97.14"/>
<polygon fill="black" stroke="black" points="230.23,-100.64 240.01,-96.56 229.82,-93.65 230.23,-100.64"/>
</g>
<!-- Dron03_7 -->
<g id="node4" class="node">
<title>Dron03_7</title>
<path fill="none" stroke="darkblue" d="M436,-105.25C436,-105.25 375,-105.25 375,-105.25 369,-105.25 363,-99.25 363,-93.25 363,-93.25 363,-80.75 363,-80.75 363,-74.75 369,-68.75 375,-68.75 375,-68.75 436,-68.75 436,-68.75 442,-68.75 448,-74.75 448,-80.75 448,-80.75 448,-93.25 448,-93.25 448,-99.25 442,-105.25 436,-105.25"/>
<text xml:space="preserve" text-anchor="middle" x="405.5" y="-89.85" font-family="Times New Roman,serif" font-size="12.00">Dron03 @ 7m</text>
<text xml:space="preserve" text-anchor="middle" x="405.5" y="-75.6" font-family="Times New Roman,serif" font-size="12.00">(M)</text>
</g>
<!-- Dron01_6&#45;&gt;Dron03_7 -->
<g id="edge3" class="edge">
<title>Dron01_6&#45;&gt;Dron03_7</title>
<path fill="none" stroke="black" d="M327.45,-91.53C335.1,-91.08 343.17,-90.61 351.09,-90.14"/>
<polygon fill="black" stroke="black" points="351.23,-93.64 361.01,-89.56 350.82,-86.65 351.23,-93.64"/>
</g>
<!-- Dron01_3 -->
<g id="node5" class="node">
<title>Dron01_3</title>
<path fill="none" stroke="darkblue" d="M557,-91.25C557,-91.25 496,-91.25 496,-91.25 490,-91.25 484,-85.25 484,-79.25 484,-79.25 484,-66.75 484,-66.75 484,-60.75 490,-54.75 496,-54.75 496,-54.75 557,-54.75 557,-54.75 563,-54.75 569,-60.75 569,-66.75 569,-66.75 569,-79.25 569,-79.25 569,-85.25 563,-91.25 557,-91.25"/>
<text xml:space="preserve" text-anchor="middle" x="526.5" y="-75.85" font-family="Times New Roman,serif" font-size="12.00">Dron01 @ 3m</text>
<text xml:space="preserve" text-anchor="middle" x="526.5" y="-61.6" font-family="Times New Roman,serif" font-size="12.00">(E)</text>
</g>
<!-- Dron03_7&#45;&gt;Dron01_3 -->
<g id="edge4" class="edge">
<title>Dron03_7&#45;&gt;Dron01_3</title>
<path fill="none" stroke="black" d="M448.45,-82.06C456.19,-81.15 464.35,-80.19 472.36,-79.25"/>
<polygon fill="black" stroke="black" points="472.5,-82.76 482.02,-78.12 471.68,-75.81 472.5,-82.76"/>
</g>
<!-- Dron02_7 -->
<g id="node6" class="node">
<title>Dron02_7</title>
<path fill="none" stroke="darkblue" d="M678,-41.25C678,-41.25 617,-41.25 617,-41.25 611,-41.25 605,-35.25 605,-29.25 605,-29.25 605,-16.75 605,-16.75 605,-10.75 611,-4.75 617,-4.75 617,-4.75 678,-4.75 678,-4.75 684,-4.75 690,-10.75 690,-16.75 690,-16.75 690,-29.25 690,-29.25 690,-35.25 684,-41.25 678,-41.25"/>
<text xml:space="preserve" text-anchor="middle" x="647.5" y="-25.85" font-family="Times New Roman,serif" font-size="12.00">Dron02 @ 7m</text>
<text xml:space="preserve" text-anchor="middle" x="647.5" y="-11.6" font-family="Times New Roman,serif" font-size="12.00">(N)</text>
</g>
<!-- Dron01_3&#45;&gt;Dron02_7 -->
<g id="edge5" class="edge">
<title>Dron01_3&#45;&gt;Dron02_7</title>
<path fill="none" stroke="black" d="M569.45,-55.37C577.36,-52.05 585.73,-48.53 593.92,-45.09"/>
<polygon fill="black" stroke="black" points="595.26,-48.32 603.13,-41.22 592.55,-41.87 595.26,-48.32"/>
</g>
<!-- Dron02_7&#45;&gt;Dron01_8 -->
<g id="edge6" class="edge">
<title>Dron02_7&#45;&gt;Dron01_8</title>
<path fill="none" stroke="black" d="M604.56,-16.53C556.75,-9.73 476.19,0 406.5,0 283.5,0 283.5,0 283.5,0 210.79,0 191.87,-2.72 121,-19 112.79,-20.89 104.24,-23.34 95.95,-26"/>
<polygon fill="black" stroke="black" points="95.05,-22.61 86.68,-29.1 97.27,-29.25 95.05,-22.61"/>
</g>
</g>
</svg>
