<?xml version="1.0" encoding="UTF-8" standalone="no"?>
<!DOCTYPE svg PUBLIC "-//W3C//DTD SVG 1.1//EN"
 "http://www.w3.org/Graphics/SVG/1.1/DTD/svg11.dtd">
<!-- Generated by graphviz version 14.1.4 (20260321.0153)
 -->
<!-- Title: Instrucciones Pages: 1 -->
<svg width="698pt" height="45pt"
 viewBox="0.00 0.00 698.00 45.00" xmlns="http://www.w3.org/2000/svg" xmlns:xlink="http://www.w3.org/1999/xlink">
<g id="graph0" class="graph" transform="scale(1 1) rotate(0) translate(4 40.5)">
<title>Instrucciones</title>
<polygon fill="white" stroke="none" points="-4,4 -4,-40.5 694,-40.5 694,4 -4,4"/>
<!-- Dron01_2 -->
<g id="node1" class="node">
<title>Dron01_2</title>
<path fill="none" stroke="darkblue" d="M73,-36.5C73,-36.5 12,-36.5 12,-36.5 6,-36.5 0,-30.5 0,-24.5 0,-24.5 0,-12 0,-12 0,-6 6,0 12,0 12,0 73,0 73,0 79,0 85,-6 85,-12 85,-12 85,-24.5 85,-24.5 85,-30.5 79,-36.5 73,-36.5"/>
<text xml:space="preserve" text-anchor="middle" x="42.5" y="-21.1" font-family="Times New Roman,serif" font-size="12.00">Dron01 @ 2m</text>
<text xml:space="preserve" text-anchor="middle" x="42.5" y="-6.85" font-family="Times New Roman,serif" font-size="12.00">(D)</text>
</g>
<!-- Dron01_6 -->
<g id="node2" class="node">
<title>Dron01_6</title>
<path fill="none" stroke="darkblue" d="M194,-36.5C194,-36.5 133,-36.5 133,-36.5 127,-36.5 121,-30.5 121,-24.5 121,-24.5 121,-12 121,-12 121,-6 127,0 133,0 133,0 194,0 194,0 200,0 206,-6 206,-12 206,-12 206,-24.5 206,-24.5 206,-30.5 200,-36.5 194,-36.5"/>
<text xml:space="preserve" text-anchor="middle" x="163.5" y="-21.1" font-family="Times New Roman,serif" font-size="12.00">Dron01 @ 6m</text>
<text xml:space="preserve" text-anchor="middle" x="163.5" y="-6.85" font-family="Times New Roman,serif" font-size="12.00">(R)</text>
</g>
<!-- Dron01_2&#45;&gt;Dron01_6 -->
<g id="edge1" class="edge">
<title>Dron01_2&#45;&gt;Dron01_6</title>
<path fill="none" stroke="black" d="M85.45,-18.25C93.1,-18.25 101.17,-18.25 109.09,-18.25"/>
<polygon fill="black" stroke="black" points="109.01,-21.75 119.01,-18.25 109.01,-14.75 109.01,-21.75"/>
</g>
<!-- Dron01_1 -->
<g id="node3" class="node">
<title>Dron01_1</title>
<path fill="none" stroke="darkblue" d="M315,-36.5C315,-36.5 254,-36.5 254,-36.5 248,-36.5 242,-30.5 242,-24.5 242,-24.5 242,-12 242,-12 242,-6 248,0 254,0 254,0 315,0 315,0 321,0 327,-6 327,-12 327,-12 327,-24.5 327,-24.5 327,-30.5 321,-36.5 315,-36.5"/>
<text xml:space="preserve" text-anchor="middle" x="284.5" y="-21.1" font-family="Times New Roman,serif" font-size="12.00">Dron01 @ 1m</text>
<text xml:space="preserve" text-anchor="middle" x="284.5" y="-6.85" font-family="Times New Roman,serif" font-size="12.00">(A)</text>
</g>
<!-- Dron01_6&#45;&gt;Dron01_1 -->
<g id="edge2" class="edge">
<title>Dron01_6&#45;&gt;Dron01_1</title>
<path fill="none" stroke="black" d="M206.45,-18.25C214.1,-18.25 222.17,-18.25 230.09,-18.25"/>
<polygon fill="black" stroke="black" points="230.01,-21.75 240.01,-18.25 230.01,-14.75 230.01,-21.75"/>
</g>
<!-- Dron02_4 -->
<g id="node4" class="node">
<title>Dron02_4</title>
<path fill="none" stroke="darkblue" d="M436,-36.5C436,-36.5 375,-36.5 375,-36.5 369,-36.5 363,-30.5 363,-24.5 363,-24.5 363,-12 363,-12 363,-6 369,0 375,0 375,0 436,0 436,0 442,0 448,-6 448,-12 448,-12 448,-24.5 448,-24.5 448,-30.5 442,-36.5 436,-36.5"/>
<text xml:space="preserve" text-anchor="middle" x="405.5" y="-21.1" font-family="Times New Roman,serif" font-size="12.00">Dron02 @ 4m</text>
<text xml:space="preserve" text-anchor="middle" x="405.5" y="-6.85" font-family="Times New Roman,serif" font-size="12.00">(G)</text>
</g>
<!-- Dron01_1&#45;&gt;Dron02_4 -->
<g id="edge3" class="edge">
<title>Dron01_1&#45;&gt;Dron02_4</title>
<path fill="none" stroke="black" d="M327.45,-18.25C335.1,-18.25 343.17,-18.25 351.09,-18.25"/>
<polygon fill="black" stroke="black" points="351.01,-21.75 361.01,-18.25 351.01,-14.75 351.01,-21.75"/>
</g>
<!-- Dron02_8 -->
<g id="node5" class="node">
<title>Dron02_8</title>
<path fill="none" stroke="darkblue" d="M557,-36.5C557,-36.5 496,-36.5 496,-36.5 490,-36.5 484,-30.5 484,-24.5 484,-24.5 484,-12 484,-12 484,-6 490,0 496,0 496,0 557,0 557,0 563,0 569,-6 569,-12 569,-12 569,-24.5 569,-24.5 569,-30.5 563,-36.5 557,-36.5"/>
<text xml:space="preserve" text-anchor="middle" x="526.5" y="-21.1" font-family="Times New Roman,serif" font-size="12.00">Dron02 @ 8m</text>
<text xml:space="preserve" text-anchor="middle" x="526.5" y="-6.85" font-family="Times New Roman,serif" font-size="12.00">(O)</text>
</g>
<!-- Dron02_4&#45;&gt;Dron02_8 -->
<g id="edge4" class="edge">
<title>Dron02_4&#45;&gt;Dron02_8</title>
<path fill="none" stroke="black" d="M448.45,-18.25C456.1,-18.25 464.17,-18.25 472.09,-18.25"/>
<polygon fill="black" stroke="black" points="472.01,-21.75 482.01,-18.25 472.01,-14.75 472.01,-21.75"/>
</g>
<!-- Dron02_7 -->
<g id="node6" class="node">
<title>Dron02_7</title>
<path fill="none" stroke="darkblue" d="M678,-36.5C678,-36.5 617,-36.5 617,-36.5 611,-36.5 605,-30.5 605,-24.5 605,-24.5 605,-12 605,-12 605,-6 611,0 617,0 617,0 678,0 678,0 684,0 690,-6 690,-12 690,-12 690,-24.5 690,-24.5 690,-30.5 684,-36.5 678,-36.5"/>
<text xml:space="preserve" text-anchor="middle" x="647.5" y="-21.1" font-family="Times New Roman,serif" font-size="12.00">Dron02 @ 7m</text>
<text xml:space="preserve" text-anchor="middle" x="647.5" y="-6.85" font-family="Times New Roman,serif" font-size="12.00">(N)</text>
</g>
<!-- Dron02_8&#45;&gt;Dron02_7 -->
<g id="edge5" class="edge">
<title>Dron02_8&#45;&gt;Dron02_7</title>
<path fill="none" stroke="black" d="M569.45,-18.25C577.1,-18.25 585.17,-18.25 593.09,-18.25"/>
<polygon fill="black" stroke="black" points="593.01,-21.75 603.01,-18.25 593.01,-14.75 593.01,-21.75"/>
</g>
</g>
</svg>
