<?xml version="1.0" encoding="UTF-8" standalone="no"?>
<!DOCTYPE svg PUBLIC "-//W3C//DTD SVG 1.1//EN"
 "http://www.w3.org/Graphics/SVG/1.1/DTD/svg11.dtd">
<!-- Generated by graphviz version 14.1.4 (20260321.0153)
 -->
<!-- Title: Instrucciones Pages: 1 -->
<svg width="549pt" height="45pt"
 viewBox="0.00 0.00 549.00 45.00" xmlns="http://www.w3.org/2000/svg" xmlns:xlink="http://www.w3.org/1999/xlink">
<g id="graph0" class="graph" transform="scale(1 1) rotate(0) translate(4 40.5)">
<title>Instrucciones</title>
<polygon fill="white" stroke="none" points="-4,4 -4,-40.5 544.5,-40.5 544.5,4 -4,4"/>
<!-- Alpha_4 -->
<g id="node1" class="node">
<title>Alpha_4</title>
<path fill="none" stroke="darkblue" d="M65.5,-36.5C65.5,-36.5 12,-36.5 12,-36.5 6,-36.5 0,-30.5 0,-24.5 0,-24.5 0,-12 0,-12 0,-6 6,0 12,0 12,0 65.5,0 65.5,0 71.5,0 77.5,-6 77.5,-12 77.5,-12 77.5,-24.5 77.5,-24.5 77.5,-30.5 71.5,-36.5 65.5,-36.5"/>
<text xml:space="preserve" text-anchor="middle" x="38.75" y="-21.1" font-family="Times New Roman,serif" font-size="12.00">Alpha @ 4m</text>
<text xml:space="preserve" text-anchor="middle" x="38.75" y="-6.85" font-family="Times New Roman,serif" font-size="12.00">(A)</text>
</g>
<!-- Beta_4 -->
<g id="node2" class="node">
<title>Beta_4</title>
<path fill="none" stroke="darkblue" d="M171.5,-36.5C171.5,-36.5 125.5,-36.5 125.5,-36.5 119.5,-36.5 113.5,-30.5 113.5,-24.5 113.5,-24.5 113.5,-12 113.5,-12 113.5,-6 119.5,0 125.5,0 125.5,0 171.5,0 171.5,0 177.5,0 183.5,-6 183.5,-12 183.5,-12 183.5,-24.5 183.5,-24.5 183.5,-30.5 177.5,-36.5 171.5,-36.5"/>
<text xml:space="preserve" text-anchor="middle" x="148.5" y="-21.1" font-family="Times New Roman,serif" font-size="12.00">Beta @ 4m</text>
<text xml:space="preserve" text-anchor="middle" x="148.5" y="-6.85" font-family="Times New Roman,serif" font-size="12.00">(N)</text>
</g>
<!-- Alpha_4&#45;&gt;Beta_4 -->
<g id="edge1" class="edge">
<title>Alpha_4&#45;&gt;Beta_4</title>
<path fill="none" stroke="black" d="M77.74,-18.25C85.47,-18.25 93.69,-18.25 101.66,-18.25"/>
<polygon fill="black" stroke="black" points="101.58,-21.75 111.58,-18.25 101.58,-14.75 101.58,-21.75"/>
</g>
<!-- Gamma_4 -->
<g id="node3" class="node">
<title>Gamma_4</title>
<path fill="none" stroke="darkblue" d="M293.25,-36.5C293.25,-36.5 231.5,-36.5 231.5,-36.5 225.5,-36.5 219.5,-30.5 219.5,-24.5 219.5,-24.5 219.5,-12 219.5,-12 219.5,-6 225.5,0 231.5,0 231.5,0 293.25,0 293.25,0 299.25,0 305.25,-6 305.25,-12 305.25,-12 305.25,-24.5 305.25,-24.5 305.25,-30.5 299.25,-36.5 293.25,-36.5"/>
<text xml:space="preserve" text-anchor="middle" x="262.38" y="-21.1" font-family="Times New Roman,serif" font-size="12.00">Gamma @ 4m</text>
<text xml:space="preserve" text-anchor="middle" x="262.38" y="-6.85" font-family="Times New Roman,serif" font-size="12.00">(I)</text>
</g>
<!-- Beta_4&#45;&gt;Gamma_4 -->
<g id="edge2" class="edge">
<title>Beta_4&#45;&gt;Gamma_4</title>
<path fill="none" stroke="black" d="M183.98,-18.25C191.57,-18.25 199.79,-18.25 207.93,-18.25"/>
<polygon fill="black" stroke="black" points="207.81,-21.75 217.81,-18.25 207.81,-14.75 207.81,-21.75"/>
</g>
<!-- Alpha_3 -->
<g id="node4" class="node">
<title>Alpha_3</title>
<path fill="none" stroke="darkblue" d="M406.75,-36.5C406.75,-36.5 353.25,-36.5 353.25,-36.5 347.25,-36.5 341.25,-30.5 341.25,-24.5 341.25,-24.5 341.25,-12 341.25,-12 341.25,-6 347.25,0 353.25,0 353.25,0 406.75,0 406.75,0 412.75,0 418.75,-6 418.75,-12 418.75,-12 418.75,-24.5 418.75,-24.5 418.75,-30.5 412.75,-36.5 406.75,-36.5"/>
<text xml:space="preserve" text-anchor="middle" x="380" y="-21.1" font-family="Times New Roman,serif" font-size="12.00">Alpha @ 3m</text>
<text xml:space="preserve" text-anchor="middle" x="380" y="-6.85" font-family="Times New Roman,serif" font-size="12.00">(M)</text>
</g>
<!-- Gamma_4&#45;&gt;Alpha_3 -->
<g id="edge3" class="edge">
<title>Gamma_4&#45;&gt;Alpha_3</title>
<path fill="none" stroke="black" d="M305.45,-18.25C313.25,-18.25 321.48,-18.25 329.49,-18.25"/>
<polygon fill="black" stroke="black" points="329.47,-21.75 339.47,-18.25 329.47,-14.75 329.47,-21.75"/>
</g>
<!-- Gamma_2 -->
<g id="node5" class="node">
<title>Gamma_2</title>
<path fill="none" stroke="darkblue" d="M528.5,-36.5C528.5,-36.5 466.75,-36.5 466.75,-36.5 460.75,-36.5 454.75,-30.5 454.75,-24.5 454.75,-24.5 454.75,-12 454.75,-12 454.75,-6 460.75,0 466.75,0 466.75,0 528.5,0 528.5,0 534.5,0 540.5,-6 540.5,-12 540.5,-12 540.5,-24.5 540.5,-24.5 540.5,-30.5 534.5,-36.5 528.5,-36.5"/>
<text xml:space="preserve" text-anchor="middle" x="497.62" y="-21.1" font-family="Times New Roman,serif" font-size="12.00">Gamma @ 2m</text>
<text xml:space="preserve" text-anchor="middle" x="497.62" y="-6.85" font-family="Times New Roman,serif" font-size="12.00">(A)</text>
</g>
<!-- Alpha_3&#45;&gt;Gamma_2 -->
<g id="edge4" class="edge">
<title>Alpha_3&#45;&gt;Gamma_2</title>
<path fill="none" stroke="black" d="M419.18,-18.25C426.87,-18.25 435.09,-18.25 443.19,-18.25"/>
<polygon fill="black" stroke="black" points="442.98,-21.75 452.98,-18.25 442.98,-14.75 442.98,-21.75"/>
</g>
</g>
</svg>
